<svg width="13" height="13" fill="none" xmlns="http://www.w3.org/2000/svg"><path d="M11.899 2.883l-.195.062-1.035.092-.293.467-.212-.067-.825-.743-.12-.387-.16-.412-.517-.464-.611-.12-.015.28.6.584.292.345-.33.172-.267-.079-.402-.167.013-.324-.527-.217-.175.762-.531.12.052.425.693.133.12-.679.57.085.267.155h.426l.291.584.774.785-.057.305-.623-.08-1.078.545-.776.93-.1.412h-.28l-.518-.239-.504.24.125.531.22-.253.385-.012-.027.478.32.093.319.359.52-.147.596.094.69.186.346.04.585.665 1.13.664-.731 1.395-.771.358-.293.798-1.115.745-.119.43A6.496 6.496 0 0013 6.5a6.472 6.472 0 00-1.101-3.617z" fill="#777"/><path d="M7.248 9.897l-.474-.878.435-.905-.435-.13-.488-.49-1.08-.243-.36-.75v.446H4.69l-.932-1.263V4.646l-.682-1.11-1.085.193h-.73l-.367-.24.468-.372-.467.108A6.46 6.46 0 00.002 6.5 6.5 6.5 0 006.5 13a6.8 6.8 0 00.816-.057l-.068-.787s.298-1.17.298-1.21c0-.04-.298-1.05-.298-1.05zM2.417 2.096l1.154-.161.532-.292.599.173.957-.053.327-.515.478.078 1.161-.109.32-.352.451-.301.638.096.233-.036a6.476 6.476 0 00-7.779 1.74h.003l.926-.268zM6.775.646l.663-.365.427.246-.617.47-.59.059-.265-.172.382-.238zM4.809.7l.293.122L5.485.7l.21.362-.886.232-.426-.249S4.799.777 4.809.7z" fill="#777"/></svg>