<svg width="14" height="14" fill="none" xmlns="http://www.w3.org/2000/svg"><path d="M1.59 5.851c.45 0 .856-.27 1.03-.685A4.754 4.754 0 017 2.246c1.086 0 2.082.373 2.88.99l-.626.097a.488.488 0 00-.125.927l3.44 1.548a.489.489 0 00.69-.443l.017-3.79a.488.488 0 00-.894-.274l-.475.713A6.975 6.975 0 007 0 7.008 7.008 0 00.55 4.283a1.128 1.128 0 001.04 1.568zm11.761 2.803a1.128 1.128 0 00-.94-.505c-.45 0-.857.27-1.031.685A4.754 4.754 0 017 11.754a4.69 4.69 0 01-2.88-.99l.626-.097a.488.488 0 00.125-.927l-3.44-1.548a.489.489 0 00-.689.443l-.018 3.79a.488.488 0 00.895.274l.474-.713A6.975 6.975 0 007 14a7.007 7.007 0 006.45-4.283 1.13 1.13 0 00-.099-1.063z" fill="#535E64"/></svg>