<svg width="13" height="13" fill="none" xmlns="http://www.w3.org/2000/svg"><g clip-path="url(#clip0)"><path d="M11.957 8.533a7.381 7.381 0 01-2.318-.37c-.363-.123-.809-.01-1.03.218L7.146 9.484c-1.695-.904-2.74-1.948-3.632-3.63l1.07-1.424a1.05 1.05 0 00.26-1.065 7.392 7.392 0 01-.371-2.322A1.043 1.043 0 003.43 0H1.043C.468 0 0 .468 0 1.043 0 7.636 5.364 13 11.957 13c.575 0 1.043-.468 1.043-1.043v-2.38c0-.576-.468-1.044-1.043-1.044z" fill="#535E64"/></g><defs><clipPath id="clip0"><path fill="#fff" d="M0 0h13v13H0z"/></clipPath></defs></svg>