<svg width="17" height="17" fill="none" xmlns="http://www.w3.org/2000/svg"><g clip-path="url(#clip0)" fill="#fff"><path d="M12.219 0H4.78c-.879 0-1.593.715-1.593 1.594v13.812c0 .88.714 1.594 1.593 1.594h7.438c.879 0 1.594-.715 1.594-1.594V1.594c0-.88-.715-1.594-1.594-1.594zM4.78 1.063h7.438c.293 0 .531.238.531.53V12.75h-8.5V1.594c0-.293.238-.532.531-.532zm7.438 14.874H4.78a.532.532 0 01-.531-.53v-1.595h8.5v1.594a.532.532 0 01-.531.531z"/><path d="M8.876 14.5a.531.531 0 11-.752.75.531.531 0 01.752-.75z"/></g><defs><clipPath id="clip0"><path fill="#fff" d="M0 0h17v17H0z"/></clipPath></defs></svg>