<svg width="14" height="14" fill="none" xmlns="http://www.w3.org/2000/svg"><g clip-path="url(#clip0)"><path d="M7 12.086h-.004c-.423-.003-4.157-.037-5.215-.323A2.163 2.163 0 01.258 10.24C-.019 9.2-.001 7.2.001 7.04c-.002-.16-.02-2.177.256-3.225l.001-.003a2.21 2.21 0 011.52-1.531l.006-.002c1.047-.275 4.788-.308 5.212-.311h.007c.424.003 4.168.037 5.217.323.737.199 1.32.78 1.52 1.52.288 1.048.261 3.07.258 3.24.002.169.019 2.152-.256 3.197l-.001.003c-.2.74-.783 1.322-1.523 1.521l-.003.001c-1.046.275-4.788.309-5.212.312H7zm-5.685-7.99c-.244.926-.22 2.918-.22 2.938v.014c-.008.553.018 2.152.22 2.91.098.363.385.65.75.749.781.21 3.823.277 4.935.285 1.114-.008 4.16-.072 4.935-.275a1.07 1.07 0 00.75-.748c.201-.77.227-2.361.22-2.91v-.017c.01-.56-.01-2.178-.22-2.942v-.002a1.067 1.067 0 00-.751-.75C11.16 3.137 8.114 3.07 7 3.063c-1.114.007-4.157.072-4.935.274-.358.1-.652.397-.75.76zm11.898 6.014zm-7.607-.868v-4.43l3.828 2.215-3.828 2.215z" fill="#61656B"/></g><defs><clipPath id="clip0"><path fill="#fff" d="M0 0h14v14H0z"/></clipPath></defs></svg>